<svg version="1.1" preserveAspectRatio="none" xmlns="http://www.w3.org/2000/svg" width="500" height="500" viewBox="0 0 500 500"><rect width="100%" height="100%" fill="#111931" fill-opacity="1"/><svg viewBox="-68.3497 129.7858 357.174 182" width="333" height="169.6820037292748" x="83.5px" y="165.159px" xmlns="http://www.w3.org/2000/svg" xmlns:xlink="http://www.w3.org/1999/xlink" preserveAspectRatio="none"><defs></defs><style>.icon3 {fill:#DDEF3F;fill-opacity:1;}.icon3-str {stroke:#DDEF3F;stroke-opacity:1;}.text {fill:#EDE9E9;fill-opacity:1;}</style><g opacity="1" transform="rotate(0 -68.3497 129.7858)">
<svg width="357.174" height="50" x="-68.3497" y="129.7858" version="1.1" preserveAspectRatio="none" viewBox="1.16 -28.48 206.88 28.96">
  <g transform="matrix(1 0 0 1 0 0)" class="icon3"><path id="id-D6z1nYkh7" d="M1.16 0L6.76-28L13.28-28L8.72-5.28L22.76-5.28L21.68 0L1.16 0Z M46.80 0L45.48-6L32.44-6L28.80 0L21.88 0L40-28L46.40-28L53.28 0L46.80 0ZM35.44-10.92L44.40-10.92L42.04-21.72L35.44-10.92Z M80.48-28L87.20-28L69.48 0L63.12 0L56.60-28L63.28-28L67.80-8.04L80.48-28Z M104.24 0L102.92-6L89.88-6L86.24 0L79.32 0L97.44-28L103.84-28L110.72 0L104.24 0ZM92.88-10.92L101.84-10.92L99.48-21.72L92.88-10.92Z M133.44-6.04L135.08-14.44L141-14.44L138.68-2.92Q136.56-1.28 133.76-0.40Q130.96 0.48 127.96 0.48L127.96 0.48Q123.76 0.48 120.64-1.04Q117.52-2.56 115.82-5.32Q114.12-8.08 114.12-11.68L114.12-11.68Q114.12-16.44 116.32-20.28Q118.52-24.12 122.52-26.30Q126.52-28.48 131.72-28.48L131.72-28.48Q135.72-28.48 138.66-27.24Q141.60-26 143.40-23.60L143.40-23.60L138.76-19.84Q137.36-21.48 135.60-22.22Q133.84-22.96 131.44-22.96L131.44-22.96Q128.24-22.96 125.80-21.54Q123.36-20.12 122.02-17.64Q120.68-15.16 120.68-12.08L120.68-12.08Q120.68-8.84 122.78-6.94Q124.88-5.04 128.80-5.04L128.80-5.04Q131.28-5.04 133.44-6.04L133.44-6.04Z M169.76-22.80L155.08-22.80L153.88-16.72L166.88-16.72L165.88-11.68L152.84-11.68L151.56-5.20L166.84-5.20L165.76 0L144.08 0L149.68-28L170.84-28L169.76-22.80Z M202.48-28L208.04-28L202.48 0L196.40 0L199.68-16.64L189-2.96L186.12-2.96L180.36-16.80L177 0L170.92 0L176.52-28L181.80-28L188.80-10.56L202.48-28Z"/></g>
</svg>
</g><g opacity="1" transform="rotate(0 -68.3497 195.7858)">
<svg width="112.0166" height="50" x="-68.3497" y="195.7858" version="1.1" preserveAspectRatio="none" viewBox="1.16 -28.48 64.88 28.96">
  <g transform="matrix(1 0 0 1 0 0)" class="text"><path id="id--VpF9B9iX2" d="M1.16 0L6.76-28L18.48-28Q22.76-28 25.86-26.58Q28.96-25.16 30.62-22.52Q32.28-19.88 32.28-16.32L32.28-16.32Q32.28-11.44 30.08-7.74Q27.88-4.04 23.94-2.02Q20 0 14.84 0L14.84 0L1.16 0ZM8.72-5.32L15.04-5.32Q18.32-5.32 20.74-6.70Q23.16-8.08 24.44-10.50Q25.72-12.92 25.72-15.96L25.72-15.96Q25.72-19.12 23.68-20.90Q21.64-22.68 17.76-22.68L17.76-22.68L12.20-22.68L8.72-5.32Z M48.72 0.48Q44.52 0.48 41.44-1.04Q38.36-2.56 36.72-5.32Q35.08-8.08 35.08-11.68L35.08-11.68Q35.08-16.44 37.26-20.26Q39.44-24.08 43.38-26.28Q47.32-28.48 52.40-28.48L52.40-28.48Q56.60-28.48 59.68-26.96Q62.76-25.44 64.40-22.68Q66.04-19.92 66.04-16.32L66.04-16.32Q66.04-11.56 63.86-7.74Q61.68-3.92 57.74-1.72Q53.80 0.48 48.72 0.48L48.72 0.48ZM49.28-5.04Q52.36-5.04 54.68-6.52Q57-8 58.24-10.48Q59.48-12.96 59.48-15.96L59.48-15.96Q59.48-19.16 57.48-21.06Q55.48-22.96 51.84-22.96L51.84-22.96Q48.76-22.96 46.44-21.48Q44.12-20 42.88-17.52Q41.64-15.04 41.64-12.04L41.64-12.04Q41.64-8.84 43.64-6.94Q45.64-5.04 49.28-5.04L49.28-5.04Z"/></g>
</svg>
</g><g opacity="1" transform="rotate(0 -68.3497 261.7858)">
<svg width="76.9146" height="50" x="-68.3497" y="261.7858" version="1.1" preserveAspectRatio="none" viewBox="-0.68 -36.04 55.440000000000005 36.04">
  <g transform="matrix(1 0 0 1 0 0)" class="text"><path id="id-o3hRGl-fB2" d="M28.88-28L28.04-23.80L9.20-5.28L24.88-5.28L23.80 0L-0.68 0L0.16-4.20L19.04-22.72L4.28-22.72L5.36-28L28.88-28Z M53.68-22.80L39-22.80L37.80-16.72L50.80-16.72L49.80-11.68L36.76-11.68L35.48-5.20L50.76-5.20L49.68 0L28 0L33.60-28L54.76-28L53.68-22.80ZM40.92-30.28L46.92-36.04L53.80-36.04L45.96-30.28L40.92-30.28Z"/></g>
</svg>
</g></svg></svg>